<?xml version="1.0" standalone="no"?>
<!DOCTYPE svg PUBLIC "-//W3C//DTD SVG 20010904//EN"
 "http://www.w3.org/TR/2001/REC-SVG-20010904/DTD/svg10.dtd">
<svg version="1.0" xmlns="http://www.w3.org/2000/svg"
 width="256.000000pt" height="256.000000pt" viewBox="0 0 256.000000 256.000000"
 preserveAspectRatio="xMidYMid meet">
<metadata>
Created by potrace 1.16, written by Peter Selinger 2001-2019
</metadata>
<g transform="translate(0.000000,256.000000) scale(0.100000,-0.100000)"
fill="#000000" stroke="none">
<path d="M1030 2553 c-74 -28 -109 -94 -110 -205 l0 -78 -310 0 c-344 0 -353
-1 -407 -63 -92 -105 -24 -267 117 -280 37 -3 46 -8 52 -28 4 -13 37 -382 73
-819 36 -437 68 -813 71 -835 10 -63 41 -120 94 -169 82 -76 79 -76 670 -76
591 0 588 0 670 76 65 61 87 111 99 230 20 191 18 224 -18 224 -32 0 -39 -22
-51 -160 -13 -157 -33 -208 -96 -252 -21 -15 -63 -32 -93 -38 -71 -13 -951
-13 -1022 0 -70 13 -127 54 -156 110 -20 41 -27 100 -78 710 -30 366 -62 740
-70 831 -8 92 -15 172 -15 178 0 6 19 11 48 11 85 0 114 19 92 61 -10 17 -23
19 -150 19 -134 0 -139 1 -169 26 -25 21 -31 33 -31 66 0 52 14 77 55 94 51
21 1919 21 1970 0 63 -27 76 -106 26 -157 l-29 -29 -769 0 c-585 0 -772 -3
-781 -12 -20 -20 -14 -48 14 -58 15 -6 288 -10 706 -10 l681 0 -6 -47 c-3 -27
-27 -308 -53 -626 -34 -410 -45 -583 -38 -594 14 -23 27 -26 47 -11 14 11 24
101 67 623 28 336 54 621 58 634 6 20 15 25 52 28 141 13 209 175 117 280 -54
62 -63 63 -407 63 l-310 0 0 78 c0 99 -26 156 -85 189 -38 22 -50 23 -275 22
-129 0 -242 -3 -250 -6z m507 -94 c21 -20 23 -31 23 -106 l0 -83 -280 0 -280
0 0 83 c0 74 3 86 23 105 28 26 47 28 291 25 190 -2 200 -4 223 -24z"/>
<path d="M813 1603 c-7 -2 -13 -20 -13 -38 0 -95 93 -1111 102 -1123 6 -7 21
-12 32 -10 18 3 21 11 24 53 4 83 -85 1095 -99 1111 -12 14 -24 16 -46 7z"/>
<path d="M1250 1591 c-7 -14 -9 -206 -8 -582 3 -523 4 -563 21 -573 12 -8 22
-8 35 0 16 10 17 50 20 573 1 376 -1 568 -8 582 -6 10 -19 19 -30 19 -11 0
-24 -9 -30 -19z"/>
<path d="M1701 1596 c-16 -19 -111 -1129 -99 -1151 11 -18 42 -20 56 -2 16 19
108 1125 95 1146 -14 22 -37 25 -52 7z"/>
</g>
</svg>
