<?xml version="1.0" standalone="no"?>
<!DOCTYPE svg PUBLIC "-//W3C//DTD SVG 20010904//EN"
 "http://www.w3.org/TR/2001/REC-SVG-20010904/DTD/svg10.dtd">
<svg version="1.0" xmlns="http://www.w3.org/2000/svg"
 width="96.000000pt" height="96.000000pt" viewBox="0 0 96.000000 96.000000"
 preserveAspectRatio="xMidYMid meet">
<metadata>
Created by potrace 1.16, written by Peter Selinger 2001-2019
</metadata>
<g transform="translate(0.000000,96.000000) scale(0.100000,-0.100000)"
fill="#000000" stroke="none">
<path d="M317 939 c-141 -48 -249 -158 -297 -300 -19 -54 -21 -81 -18 -180 3
-109 5 -119 40 -190 62 -125 190 -231 312 -259 l36 -8 0 179 0 178 -47 3 -48
3 -3 53 -3 52 49 0 49 0 7 55 c14 121 64 185 160 205 31 6 68 10 83 8 27 -3
28 -5 28 -63 l0 -59 -45 -8 c-58 -10 -90 -44 -90 -99 l0 -39 56 0 55 0 -3 -52
-3 -53 -52 -3 -53 -3 0 -181 0 -180 48 7 c131 19 273 129 340 264 l37 75 0
136 0 136 -38 77 c-61 123 -153 205 -276 247 -84 28 -242 28 -324 -1z"/>
</g>
</svg>
