<?xml version="1.0" standalone="no"?>
<!DOCTYPE svg PUBLIC "-//W3C//DTD SVG 20010904//EN"
 "http://www.w3.org/TR/2001/REC-SVG-20010904/DTD/svg10.dtd">
<svg version="1.0" xmlns="http://www.w3.org/2000/svg"
 width="512.000000pt" height="512.000000pt" viewBox="0 0 512.000000 512.000000"
 preserveAspectRatio="xMidYMid meet">
<metadata>
Created by potrace 1.16, written by Peter Selinger 2001-2019
</metadata>
<g transform="translate(0.000000,512.000000) scale(0.100000,-0.100000)"
fill="#000000" stroke="none">
<path d="M1770 5105 c-25 -8 -68 -29 -97 -47 -42 -28 -796 -720 -910 -837 -52
-53 -91 -127 -108 -206 -14 -61 -15 -201 -13 -1098 l3 -1029 24 -19 c31 -25
77 -18 109 17 l22 25 0 1015 0 1014 415 0 c390 0 417 1 468 20 70 26 125 75
162 141 l30 54 5 405 5 405 1155 3 1156 2 44 -22 c80 -42 80 -44 80 -434 0
-325 1 -343 20 -366 37 -48 108 -41 130 12 8 18 10 136 8 381 l-3 354 -28 57
c-16 32 -48 75 -73 97 -86 76 4 71 -1348 70 -1006 0 -1219 -3 -1256 -14z m-51
-918 c-16 -38 -72 -85 -111 -92 -18 -3 -195 -4 -392 -3 l-359 3 434 405 434
404 3 -344 c2 -241 -1 -353 -9 -373z"/>
<path d="M3110 4690 c-247 -30 -463 -181 -574 -403 -64 -127 -80 -197 -80
-337 0 -173 39 -295 140 -436 73 -103 167 -178 319 -255 23 -11 56 -60 140
-204 87 -150 116 -192 138 -199 57 -21 72 -5 197 213 l118 204 59 31 c72 38
225 189 272 268 18 32 47 97 64 145 29 82 31 97 32 228 0 119 -4 151 -23 215
-108 348 -447 572 -802 530z m273 -179 c181 -64 312 -195 373 -376 23 -67 28
-97 28 -185 0 -88 -5 -118 -28 -185 -51 -149 -149 -263 -297 -345 -52 -29 -69
-45 -97 -95 -19 -33 -60 -102 -89 -153 l-55 -93 -83 143 c-49 86 -92 148 -106
155 -13 7 -54 27 -91 44 -151 71 -269 214 -313 379 -19 71 -19 229 0 300 54
203 215 366 417 420 95 26 254 22 341 -9z"/>
<path d="M3185 4278 c-35 -19 -45 -41 -45 -100 0 -49 4 -63 25 -83 30 -31 73
-32 103 -5 19 18 22 32 22 90 0 62 -2 70 -26 89 -30 23 -49 26 -79 9z"/>
<path d="M3185 3998 c-42 -23 -45 -35 -45 -207 1 -115 4 -171 13 -182 20 -26
55 -40 82 -33 50 12 55 34 55 220 l0 173 -26 20 c-30 23 -49 26 -79 9z"/>
<path d="M4364 3958 c-12 -5 -27 -21 -33 -34 -8 -18 -11 -528 -11 -1842 0
-1739 -1 -1819 -18 -1852 -12 -22 -35 -44 -62 -57 l-44 -23 -1636 0 -1636 0
-44 23 c-85 43 -80 -1 -80 784 l0 692 -22 25 c-32 36 -77 43 -108 18 l-25 -20
0 -724 0 -723 28 -57 c16 -32 48 -75 73 -97 87 -77 -57 -71 1814 -71 1871 0
1727 -6 1814 71 25 22 57 65 73 97 l28 57 3 1848 2 1848 -24 24 c-26 26 -57
31 -92 13z"/>
<path d="M1380 3417 c-13 -7 -31 -25 -40 -40 -13 -24 -13 -30 0 -54 29 -51 40
-53 388 -53 269 0 328 3 352 15 56 29 53 107 -5 131 -47 19 -657 21 -695 1z"/>
<path d="M1350 3113 c-16 -20 -20 -36 -16 -58 13 -61 4 -60 386 -63 l350 -3
25 25 c32 32 33 75 2 104 -23 22 -28 22 -374 22 l-352 0 -21 -27z"/>
<path d="M1351 2554 c-12 -15 -21 -33 -21 -40 0 -26 23 -62 47 -73 35 -16
2436 -16 2466 1 50 26 60 69 26 112 l-20 26 -1239 0 -1239 0 -20 -26z"/>
<path d="M1351 2274 c-28 -35 -26 -69 4 -99 l24 -25 1231 0 1231 0 24 25 c30
30 32 64 4 99 l-20 26 -1239 0 -1239 0 -20 -26z"/>
<path d="M1355 1825 c-14 -13 -25 -36 -25 -50 0 -14 11 -37 25 -50 l24 -25
1004 0 1004 0 21 23 c31 33 29 80 -4 106 -27 21 -30 21 -1026 21 l-999 0 -24
-25z"/>
<path d="M1370 1557 c-14 -7 -28 -26 -34 -45 -7 -27 -6 -38 11 -60 l20 -27
1241 -3 1240 -2 21 26 c26 33 27 65 2 95 l-19 24 -1229 2 c-969 2 -1233 0
-1253 -10z"/>
<path d="M1380 1107 c-13 -7 -31 -25 -40 -40 -13 -24 -13 -30 0 -54 9 -15 27
-33 40 -40 33 -17 2410 -19 2457 -3 69 25 69 113 -1 140 -43 16 -2423 14
-2456 -3z"/>
<path d="M1351 804 c-23 -29 -24 -36 -15 -72 14 -52 13 -52 697 -52 627 0 635
0 661 21 33 26 36 79 6 109 -20 20 -33 20 -674 20 l-655 0 -20 -26z"/>
</g>
</svg>
