<?xml version="1.0" standalone="no"?>
<!DOCTYPE svg PUBLIC "-//W3C//DTD SVG 20010904//EN"
 "http://www.w3.org/TR/2001/REC-SVG-20010904/DTD/svg10.dtd">
<svg version="1.0" xmlns="http://www.w3.org/2000/svg"
 width="1200.000000pt" height="1200.000000pt" viewBox="0 0 1200.000000 1200.000000"
 preserveAspectRatio="xMidYMid meet">
<metadata>
Created by potrace 1.16, written by Peter Selinger 2001-2019
</metadata>
<g transform="translate(0.000000,1200.000000) scale(0.100000,-0.100000)"
fill="#000000" stroke="none">
<path d="M0 6000 l0 -6000 6000 0 6000 0 0 6000 0 6000 -6000 0 -6000 0 0
-6000z m7823 2397 c288 -90 519 -299 626 -569 69 -172 65 -59 69 -1673 2
-1049 0 -1487 -8 -1555 -41 -344 -272 -646 -593 -775 -164 -66 -93 -63 -1706
-69 -1091 -4 -1467 -9 -1475 -17 -8 -9 -8 -10 2 -5 6 4 12 2 12 -4 0 -6 4 -9
9 -6 5 3 12 -1 15 -10 3 -8 2 -13 -2 -10 -5 3 -9 -1 -9 -8 0 -8 7 -12 15 -8 9
3 13 1 9 -4 -3 -6 10 -57 30 -115 19 -57 35 -114 35 -126 0 -13 4 -20 9 -17 4
2 8 -8 7 -23 -1 -15 9 -95 22 -178 21 -139 22 -160 11 -280 -10 -116 -29 -267
-34 -272 -2 -1 -335 -3 -742 -5 -735 -3 -741 -3 -816 19 -252 72 -443 253
-527 498 l-27 80 -3 684 c-3 708 -3 710 36 696 6 -2 12 -1 12 3 0 12 127 43
220 53 47 5 141 9 210 7 69 -1 144 -2 168 -2 23 0 42 -4 42 -7 0 -4 18 -5 40
-2 26 4 40 2 40 -6 0 -6 14 -11 32 -11 29 0 73 -11 123 -31 11 -4 45 -13 75
-20 30 -6 63 -16 72 -21 17 -8 18 75 20 1509 l3 1518 23 80 c101 358 386 628
742 700 52 11 360 13 1595 12 l1530 -2 88 -28z"/>
<path d="M4735 8010 c-33 -5 -87 -18 -119 -29 -163 -57 -296 -205 -341 -378
-23 -87 -23 -2919 0 -3008 49 -190 191 -339 377 -396 66 -20 89 -21 1535 -22
l1468 -2 65 23 c93 34 170 84 232 150 67 73 103 140 128 238 19 75 20 115 20
1509 0 1394 -1 1434 -20 1509 -25 99 -60 163 -130 237 -63 67 -146 120 -240
152 l-65 22 -1425 1 c-784 1 -1452 -2 -1485 -6z m2903 -489 c75 -53 93 -163
38 -236 -35 -46 -74 -65 -131 -65 -99 0 -168 68 -168 165 0 65 24 108 78 141
52 32 135 30 183 -5z m-1245 -186 c259 -45 487 -165 677 -355 180 -180 297
-399 347 -647 23 -120 23 -356 0 -476 -140 -705 -835 -1153 -1531 -988 -365
87 -696 356 -851 694 -129 281 -151 616 -59 909 138 439 524 780 975 862 103
19 337 19 442 1z"/>
<path d="M6090 6930 c-204 -25 -404 -126 -530 -267 -156 -175 -229 -379 -218
-615 18 -366 269 -672 633 -769 112 -30 298 -30 409 0 168 45 331 148 437 275
323 390 239 962 -182 1242 -156 103 -370 156 -549 134z"/>
</g>
</svg>
